<svg width="24" height="24" viewBox="0 0 24 24" fill="none" xmlns="http://www.w3.org/2000/svg">
<path d="M14.893 11.9962L7.30045 4.65795C7.10015 4.46437 7.00259 4.23644 7.00776 3.97416C7.01293 3.71189 7.11567 3.48396 7.31597 3.29038C7.51625 3.09679 7.75207 3 8.02345 3C8.29482 3 8.53065 3.09679 8.73093 3.29038L16.4631 10.7485C16.6453 10.9246 16.7804 11.1219 16.8682 11.3405C16.9561 11.559 17 11.7776 17 11.9962C17 12.2147 16.9561 12.4333 16.8682 12.6519C16.7803 12.8704 16.6453 13.0677 16.4631 13.2438L8.73093 20.7169C8.53065 20.9105 8.29223 21.0048 8.01569 20.9998C7.73915 20.9948 7.50074 20.8955 7.30045 20.7019C7.10015 20.5083 7 20.2804 7 20.0182C7 19.7559 7.10015 19.5279 7.30045 19.3344L14.893 11.9962Z" fill="#CACACA"/>
</svg>
