<svg width="20" height="20" viewBox="0 0 20 20" fill="none" xmlns="http://www.w3.org/2000/svg">
<path d="M10.0032 12.4109L16.1184 6.08371C16.2797 5.9168 16.4696 5.83549 16.6882 5.83981C16.9068 5.84412 17.0967 5.92973 17.258 6.09665C17.4193 6.26355 17.5 6.46007 17.5 6.68621C17.5 6.91236 17.4193 7.10888 17.258 7.27578L11.0429 13.7192C10.8962 13.8711 10.7317 13.9836 10.5496 14.0568C10.3675 14.1301 10.1853 14.1667 10.0032 14.1667C9.82107 14.1667 9.63894 14.1301 9.45679 14.0568C9.27466 13.9836 9.11022 13.8711 8.96347 13.7192L2.73591 7.27578C2.57459 7.10888 2.496 6.9102 2.50016 6.67974C2.50432 6.4493 2.58707 6.25062 2.74839 6.08371C2.90971 5.9168 3.09965 5.83334 3.3182 5.83334C3.53677 5.83334 3.72672 5.9168 3.88804 6.08371L10.0032 12.4109Z" fill="#CACACA"/>
</svg>
