<svg width="24" height="24" viewBox="0 0 24 24" fill="none" xmlns="http://www.w3.org/2000/svg">
<path d="M17.4354 7.36164C18.1631 7.91003 19.0524 8.44085 20.0437 8.57443C20.5042 8.6377 20.9296 8.31078 20.9929 7.85027C21.0562 7.38977 20.7292 6.96442 20.2687 6.90114C19.7098 6.82732 19.1016 6.50391 18.4513 6.01528C17.1014 4.99584 15.27 4.99584 13.9166 6.01528C13.0729 6.65155 12.4858 6.93981 12.0007 6.93981C11.5156 6.93981 10.9285 6.65155 10.0849 6.01528C8.73499 4.99584 6.90352 4.99584 5.55012 6.01528C4.89979 6.50391 4.29164 6.82732 3.73271 6.90114C3.2722 6.96442 2.94528 7.38625 3.00856 7.85027C3.07183 8.31429 3.49367 8.6377 3.95769 8.57443C4.94901 8.44085 5.84189 7.91003 6.56605 7.36164C7.31481 6.79568 8.32019 6.79568 9.06895 7.36164C9.91965 8.00495 10.9075 8.62364 12.0007 8.62364C13.094 8.62364 14.0783 8.00143 14.9325 7.36164C15.6812 6.79568 16.6866 6.79568 17.4354 7.36164ZM17.4354 12.4237C18.1631 12.9721 19.0524 13.5029 20.0437 13.6365C20.5042 13.6997 20.9296 13.3728 20.9929 12.9123C21.0562 12.4518 20.7292 12.0265 20.2687 11.9632C19.7098 11.8894 19.1016 11.566 18.4513 11.0773C17.1014 10.0579 15.27 10.0579 13.9166 11.0773C13.0729 11.7136 12.4858 12.0019 12.0007 12.0019C11.5156 12.0019 10.9285 11.7136 10.0849 11.0773C8.73499 10.0579 6.90352 10.0579 5.55012 11.0773C4.89979 11.566 4.29164 11.8894 3.73271 11.9632C3.2722 12.0229 2.94528 12.4483 3.00856 12.9123C3.07183 13.3763 3.49367 13.6997 3.95769 13.6365C4.94901 13.5029 5.84189 12.9721 6.56605 12.4237C7.31481 11.8577 8.32019 11.8577 9.06895 12.4237C9.91965 13.067 10.9075 13.6857 12.0007 13.6857C13.094 13.6857 14.0783 13.0635 14.9325 12.4237C15.6812 11.8577 16.6866 11.8577 17.4354 12.4237ZM14.9325 17.4857C15.6812 16.9198 16.6866 16.9198 17.4354 17.4857C18.1631 18.0341 19.0524 18.5649 20.0437 18.6985C20.5042 18.7618 20.9296 18.4349 20.9929 17.9744C21.0562 17.5139 20.7292 17.0885 20.2687 17.0252C19.7098 16.9514 19.1016 16.628 18.4513 16.1394C17.1014 15.1199 15.27 15.1199 13.9166 16.1394C13.0729 16.7756 12.4858 17.0639 12.0007 17.0639C11.5156 17.0639 10.9285 16.7756 10.0849 16.1394C8.73499 15.1199 6.90352 15.1199 5.55012 16.1394C4.89979 16.628 4.29164 16.9514 3.73271 17.0252C3.2722 17.0885 2.94528 17.5103 3.00856 17.9744C3.07183 18.4384 3.49367 18.7618 3.95769 18.6985C4.94901 18.5649 5.84189 18.0341 6.56605 17.4857C7.31481 16.9198 8.32019 16.9198 9.06895 17.4857C9.91965 18.129 10.9075 18.7477 12.0007 18.7477C13.094 18.7477 14.0783 18.1255 14.9325 17.4857Z" fill="#CACACA"/>
</svg>
