<svg width="28" height="28" viewBox="0 0 28 28" fill="none" xmlns="http://www.w3.org/2000/svg">
<rect x="1" y="1" width="26" height="26" rx="13" stroke="#CACACA" stroke-width="2"/>
<path d="M18.5295 10.1347C19.1359 10.5917 19.877 11.034 20.7031 11.1454C21.0869 11.1981 21.4413 10.9257 21.4941 10.5419C21.5468 10.1581 21.2744 9.80368 20.8906 9.75095C20.4248 9.68943 19.918 9.41993 19.3761 9.01274C18.2512 8.1632 16.725 8.1632 15.5971 9.01274C14.8941 9.54296 14.4049 9.78318 14.0006 9.78318C13.5963 9.78318 13.1071 9.54296 12.4041 9.01274C11.2792 8.1632 9.75293 8.1632 8.6251 9.01274C8.08316 9.41993 7.57637 9.68943 7.11059 9.75095C6.72684 9.80368 6.4544 10.1552 6.50713 10.5419C6.55986 10.9286 6.91139 11.1981 7.29807 11.1454C8.12417 11.034 8.86825 10.5917 9.47171 10.1347C10.0957 9.66307 10.9335 9.66307 11.5575 10.1347C12.2664 10.6708 13.0895 11.1864 14.0006 11.1864C14.9116 11.1864 15.7319 10.6679 16.4437 10.1347C17.0677 9.66307 17.9055 9.66307 18.5295 10.1347ZM18.5295 14.3531C19.1359 14.8101 19.877 15.2524 20.7031 15.3637C21.0869 15.4165 21.4413 15.144 21.4941 14.7603C21.5468 14.3765 21.2744 14.0221 20.8906 13.9693C20.4248 13.9078 19.918 13.6383 19.3761 13.2311C18.2512 12.3816 16.725 12.3816 15.5971 13.2311C14.8941 13.7613 14.4049 14.0015 14.0006 14.0015C13.5963 14.0015 13.1071 13.7613 12.4041 13.2311C11.2792 12.3816 9.75293 12.3816 8.6251 13.2311C8.08316 13.6383 7.57637 13.9078 7.11059 13.9693C6.72684 14.0191 6.4544 14.3736 6.50713 14.7603C6.55986 15.147 6.91139 15.4165 7.29807 15.3637C8.12417 15.2524 8.86825 14.8101 9.47171 14.3531C10.0957 13.8814 10.9335 13.8814 11.5575 14.3531C12.2664 14.8892 13.0895 15.4047 14.0006 15.4047C14.9116 15.4047 15.7319 14.8862 16.4437 14.3531C17.0677 13.8814 17.9055 13.8814 18.5295 14.3531ZM16.4437 18.5714C17.0677 18.0998 17.9055 18.0998 18.5295 18.5714C19.1359 19.0284 19.877 19.4708 20.7031 19.5821C21.0869 19.6348 21.4413 19.3624 21.4941 18.9786C21.5468 18.5949 21.2744 18.2404 20.8906 18.1877C20.4248 18.1262 19.918 17.8567 19.3761 17.4495C18.2512 16.5999 16.725 16.5999 15.5971 17.4495C14.8941 17.9797 14.4049 18.2199 14.0006 18.2199C13.5963 18.2199 13.1071 17.9797 12.4041 17.4495C11.2792 16.5999 9.75293 16.5999 8.6251 17.4495C8.08316 17.8567 7.57637 18.1262 7.11059 18.1877C6.72684 18.2404 6.4544 18.592 6.50713 18.9786C6.55986 19.3653 6.91139 19.6348 7.29807 19.5821C8.12417 19.4708 8.86825 19.0284 9.47171 18.5714C10.0957 18.0998 10.9335 18.0998 11.5575 18.5714C12.2664 19.1075 13.0895 19.6231 14.0006 19.6231C14.9116 19.6231 15.7319 19.1046 16.4437 18.5714Z" fill="#CACACA"/>
</svg>
