<svg width="24" height="24" viewBox="0 0 24 24" fill="none" xmlns="http://www.w3.org/2000/svg">
<path d="M17.13 17.13C15.6537 18.2553 13.856 18.8787 12 18.9091C5.95455 18.9091 2.5 12 2.5 12C3.57427 9.998 5.06425 8.24889 6.87 6.87M10.1864 5.29818C10.7808 5.15903 11.3895 5.08947 12 5.09091C18.0455 5.09091 21.5 12 21.5 12C20.9758 12.9808 20.3505 13.9041 19.6345 14.755M13.8309 13.8309C13.5937 14.0855 13.3077 14.2896 12.9899 14.4312C12.672 14.5729 12.329 14.649 11.9811 14.6551C11.6332 14.6613 11.2876 14.5973 10.965 14.467C10.6424 14.3367 10.3494 14.1427 10.1033 13.8967C9.85729 13.6506 9.66334 13.3576 9.53303 13.035C9.40272 12.7124 9.33873 12.3668 9.34487 12.0189C9.351 11.671 9.42715 11.328 9.56876 11.0101C9.71037 10.6923 9.91454 10.4063 10.1691 10.1691M2.5 2.5L21.5 21.5" stroke="#CACACA" stroke-width="1.72727" stroke-linecap="round" stroke-linejoin="round"/>
</svg>
