<svg width="33" height="33" viewBox="0 0 33 33" fill="none" xmlns="http://www.w3.org/2000/svg">
<rect x="1" y="1" width="31" height="31" rx="15.5" stroke="#CACACA" stroke-width="2"/>
<path d="M16.5 24C14.75 24 13.2014 23.4689 11.8542 22.4067C10.5069 21.3444 9.63194 19.9867 9.22917 18.3333C9.17361 18.125 9.21528 17.9342 9.35417 17.7608C9.49306 17.5875 9.68056 17.4867 9.91667 17.4583C10.1389 17.4306 10.3403 17.4722 10.5208 17.5833C10.7014 17.6944 10.8264 17.8611 10.8958 18.0833C11.2292 19.3333 11.9167 20.3542 12.9583 21.1458C14 21.9375 15.1806 22.3333 16.5 22.3333C18.125 22.3333 19.5036 21.7675 20.6358 20.6358C21.7681 19.5042 22.3339 18.1256 22.3333 16.5C22.3328 14.8744 21.7669 13.4961 20.6358 12.365C19.5047 11.2339 18.1261 10.6678 16.5 10.6667C15.5417 10.6667 14.6458 10.8889 13.8125 11.3333C12.9792 11.7778 12.2778 12.3889 11.7083 13.1667H13.1667C13.4028 13.1667 13.6008 13.2467 13.7608 13.4067C13.9208 13.5667 14.0006 13.7644 14 14C13.9994 14.2356 13.9194 14.4336 13.76 14.5942C13.6006 14.7547 13.4028 14.8344 13.1667 14.8333H9.83333C9.59722 14.8333 9.39944 14.7533 9.24 14.5933C9.08056 14.4333 9.00056 14.2356 9 14V10.6667C9 10.4306 9.08 10.2328 9.24 10.0733C9.4 9.91389 9.59778 9.83389 9.83333 9.83333C10.0689 9.83278 10.2669 9.91278 10.4275 10.0733C10.5881 10.2339 10.6678 10.4317 10.6667 10.6667V11.7917C11.375 10.9028 12.2397 10.2153 13.2608 9.72917C14.2819 9.24306 15.3617 9 16.5 9C17.5417 9 18.5175 9.19806 19.4275 9.59417C20.3375 9.99028 21.1292 10.5247 21.8025 11.1975C22.4758 11.8703 23.0106 12.6619 23.4067 13.5725C23.8028 14.4831 24.0006 15.4589 24 16.5C23.9994 17.5411 23.8017 18.5169 23.4067 19.4275C23.0117 20.3381 22.4769 21.1297 21.8025 21.8025C21.1281 22.4753 20.3364 23.01 19.4275 23.4067C18.5186 23.8033 17.5428 24.0011 16.5 24ZM17.3333 16.1667L19.4167 18.25C19.5694 18.4028 19.6458 18.5972 19.6458 18.8333C19.6458 19.0694 19.5694 19.2639 19.4167 19.4167C19.2639 19.5694 19.0694 19.6458 18.8333 19.6458C18.5972 19.6458 18.4028 19.5694 18.25 19.4167L15.9167 17.0833C15.8333 17 15.7708 16.9064 15.7292 16.8025C15.6875 16.6986 15.6667 16.5908 15.6667 16.4792V13.1667C15.6667 12.9306 15.7467 12.7328 15.9067 12.5733C16.0667 12.4139 16.2644 12.3339 16.5 12.3333C16.7356 12.3328 16.9336 12.4128 17.0942 12.5733C17.2547 12.7339 17.3344 12.9317 17.3333 13.1667V16.1667Z" fill="#CACACA"/>
</svg>
