<svg width="24" height="24" viewBox="0 0 24 24" fill="none" xmlns="http://www.w3.org/2000/svg">
<path d="M13.3037 5C14.2882 5 15.1453 5.53626 15.6055 6.33105L15.6084 6.33008L20.9297 15.5469L20.9268 15.5479C21.1536 15.9395 21.2861 16.3928 21.2861 16.8779C21.2861 18.3474 20.0945 19.5391 18.625 19.5391C17.6402 19.5389 16.7822 19.0023 16.3223 18.207L16.3213 18.208L13.3037 12.9814L10.3252 18.1396C10.3207 18.148 10.3151 18.1558 10.3105 18.1641L10.2861 18.208L10.2842 18.207C9.8241 19.0021 8.96708 19.539 7.98242 19.5391C6.9971 19.5391 6.13861 19.002 5.67871 18.2061L5.67773 18.208L0.356445 8.99121L0.357422 8.98926C0.131367 8.59817 6.64426e-05 8.14531 0 7.66113C0 6.19164 1.19164 5 2.66113 5C3.64557 5.00014 4.5028 5.53621 4.96289 6.33105L4.96484 6.33008L7.98145 11.5557L11 6.33008H11.001C11.4612 5.53545 12.3194 5.00001 13.3037 5ZM21.3398 5C22.809 5.00033 23.9999 6.19194 24 7.66113C23.9999 8.14243 23.87 8.59293 23.6465 8.98242H23.6484L21.5986 12.5137C21.483 12.7129 21.1957 12.7129 21.0801 12.5137L19.0303 8.98242H19.0322C18.8086 8.5929 18.6788 8.14247 18.6787 7.66113C18.6788 6.19174 19.8704 5 21.3398 5Z" fill="#2370FF"/>
</svg>
