<svg width="24" height="24" viewBox="0 0 24 24" fill="none" xmlns="http://www.w3.org/2000/svg">
<path d="M6 5.4C6 5.0287 6.1475 4.6726 6.41005 4.41005C6.6726 4.1475 7.0287 4 7.4 4H13.6C13.9713 4 14.3274 4.1475 14.5899 4.41005C14.8525 4.6726 15 5.0287 15 5.4V8C15 8.26522 15.1054 8.51957 15.2929 8.70711C15.4804 8.89464 15.7348 9 16 9C16.2652 9 16.5196 8.89464 16.7071 8.70711C16.8946 8.51957 17 8.26522 17 8V5.4C17 4.95351 16.9121 4.51138 16.7412 4.09888C16.5703 3.68637 16.3199 3.31156 16.0042 2.99584C15.6884 2.68012 15.3136 2.42968 14.9011 2.25881C14.4886 2.08794 14.0465 2 13.6 2H7.4C6.49826 2 5.63346 2.35821 4.99584 2.99584C4.35821 3.63346 4 4.49826 4 5.4V18.6C4 19.5017 4.35821 20.3665 4.99584 21.0042C5.63346 21.6418 6.49826 22 7.4 22H13.6C14.5017 22 15.3665 21.6418 16.0042 21.0042C16.6418 20.3665 17 19.5017 17 18.6V16C17 15.7348 16.8946 15.4804 16.7071 15.2929C16.5196 15.1054 16.2652 15 16 15C15.7348 15 15.4804 15.1054 15.2929 15.2929C15.1054 15.4804 15 15.7348 15 16V18.6C15 18.9713 14.8525 19.3274 14.5899 19.5899C14.3274 19.8525 13.9713 20 13.6 20H7.4C7.0287 20 6.6726 19.8525 6.41005 19.5899C6.1475 19.3274 6 18.9713 6 18.6V5.4Z" fill="#EA3B42"/>
<path d="M19.293 8.29322C19.4805 8.10575 19.7348 8.00043 20 8.00043C20.2652 8.00043 20.5195 8.10575 20.707 8.29322L23.707 11.2932C23.8945 11.4807 23.9998 11.7351 23.9998 12.0002C23.9998 12.2654 23.8945 12.5197 23.707 12.7072L20.707 15.7072C20.5184 15.8894 20.2658 15.9902 20.0036 15.9879C19.7414 15.9856 19.4906 15.8804 19.3052 15.695C19.1198 15.5096 19.0146 15.2588 19.0123 14.9966C19.01 14.7344 19.1108 14.4818 19.293 14.2932L20.586 13.0002H9C8.73478 13.0002 8.48043 12.8949 8.29289 12.7073C8.10536 12.5198 8 12.2654 8 12.0002C8 11.735 8.10536 11.4807 8.29289 11.2931C8.48043 11.1056 8.73478 11.0002 9 11.0002H20.586L19.293 9.70722C19.1055 9.51969 19.0002 9.26539 19.0002 9.00022C19.0002 8.73506 19.1055 8.48075 19.293 8.29322Z" fill="#EA3B42"/>
</svg>
