<svg width="282" height="96" viewBox="0 0 282 96" fill="none" xmlns="http://www.w3.org/2000/svg">
<path d="M10.6426 20C14.5812 20 18.0179 22.1411 19.8584 25.3213H19.8604L31.9287 46.2246L43.998 25.3203H43.999C45.8396 22.1406 49.2766 20.001 53.2148 20.001C57.1532 20.001 60.5891 22.1415 62.4297 25.3213L62.4326 25.3203L83.7188 62.1885L83.7158 62.1895C84.6223 63.7555 85.1445 65.5721 85.1445 67.5117C85.1444 73.3896 80.3789 78.1543 74.501 78.1543C70.5614 78.1542 67.1243 76.0125 65.2842 72.8311V72.832L53.2148 51.9277L41.1465 72.832L41.1445 72.8311C39.3043 76.0122 35.8681 78.1543 31.9287 78.1543C27.9897 78.1542 24.5531 76.0129 22.7129 72.832L22.7119 72.833L1.42578 35.9648L1.42676 35.9639C0.520928 34.3982 0 32.5814 0 30.6426C0.000248926 24.765 4.76496 20.0002 10.6426 20ZM85.3574 20.001C91.235 20.0013 95.9998 24.7659 96 30.6436C96 32.5691 95.4861 34.3743 94.5918 35.9326H94.5947L86.3955 50.0566C85.933 50.8533 84.7819 50.8532 84.3193 50.0566L76.1201 35.9326H76.1221C75.2277 34.3743 74.7139 32.5691 74.7139 30.6436C74.7141 24.7657 79.4796 20.001 85.3574 20.001Z" fill="#2370FF"/>
<path d="M156.464 41.48L146.96 77.864H140.672L132.32 53.576L124.928 77.864H118.64L106.832 41.48H114.512L121.808 64.712L128.288 41.528H136.256L143.12 64.712L148.784 41.48H156.464ZM167.731 78.008C161.107 78.008 156.883 73.064 156.883 66.056C156.883 59.048 161.107 54.104 167.731 54.104C169.699 54.104 172.339 54.824 173.971 57.032V54.056H181.267V77.96H173.971V75.128C172.339 77.288 169.699 78.008 167.731 78.008ZM168.883 72.104C171.715 72.104 173.923 69.56 173.971 66.056C173.923 62.552 171.715 60.008 168.883 60.008C165.907 60.008 164.179 62.216 164.179 66.056C164.179 69.896 165.907 72.104 168.883 72.104ZM192.221 68.744C192.797 70.856 194.957 72.008 196.253 72.008C197.981 72.008 198.845 71.48 198.845 70.616C198.845 69.896 197.501 69.368 195.437 68.6C192.173 67.4 187.565 65.672 187.565 61.016C187.565 56.408 191.645 53.816 196.877 53.816C200.045 53.816 204.221 55.688 205.613 60.008L199.805 62.264C198.941 59.912 197.549 59.816 196.877 59.816C195.389 59.816 194.861 60.296 194.861 61.016C194.861 61.64 196.157 62.12 198.173 62.888C201.437 64.088 206.093 65.864 206.093 70.424C206.093 75.032 202.253 78.008 196.253 78.008C192.461 78.008 188.045 75.272 186.701 71.816L192.221 68.744ZM227.174 65.24C227.174 61.64 225.782 59.624 223.526 59.624C220.598 59.624 218.774 61.976 218.774 65.24V77H211.478V42.824H218.774V56.264C220.55 53.864 223.142 53.576 224.054 53.576C230.438 53.576 234.47 57.992 234.47 64.232V77H227.174V65.24ZM250.765 77.96C243.949 77.96 239.149 73.064 239.149 66.056C239.149 59 243.949 54.056 250.765 54.056C258.349 54.056 260.797 60.296 260.893 60.488C262.333 63.32 261.949 67.64 261.949 68.504H245.965C246.589 70.664 248.797 71.96 250.813 71.96C253.357 71.96 254.653 70.904 255.133 69.944L261.133 72.2C260.029 74.936 256.669 77.96 250.765 77.96ZM255.277 64.232C254.701 61.64 253.213 60.008 250.765 60.008C248.365 60.008 246.589 61.496 246.013 64.232H255.277ZM266.915 77.96V54.104H274.115V57.464C275.747 55.112 278.483 54.008 280.259 54.152V60.584C276.131 60.296 274.115 64.04 274.115 66.584V77.96H266.915Z" fill="#2370FF"/>
</svg>
