<svg width="24" height="24" viewBox="0 0 24 24" fill="none" xmlns="http://www.w3.org/2000/svg">
<path d="M15 18V19C15 20.6569 13.6569 22 12 22C10.3431 22 9 20.6569 9 19V18M15 18H9M15 18H18.5905C18.973 18 19.1652 18 19.3201 17.9478C19.616 17.848 19.8475 17.6156 19.9473 17.3198C19.9997 17.1643 19.9997 16.9715 19.9997 16.5859C19.9997 16.4172 19.9995 16.3329 19.9863 16.2524C19.9614 16.1004 19.9024 15.9563 19.8126 15.8312C19.7651 15.7651 19.7048 15.7048 19.5858 15.5858L19.1963 15.1963C19.0706 15.0706 19 14.9001 19 14.7224V9C19 5.134 15.866 1.99999 12 2C8.13401 2.00001 5 5.13401 5 9V14.7224C5 14.9002 4.92924 15.0706 4.80357 15.1963L4.41406 15.5858C4.29476 15.7051 4.23504 15.765 4.1875 15.8312C4.09766 15.9564 4.03815 16.1004 4.0132 16.2524C4 16.3329 4 16.4172 4 16.586C4 16.9715 4 17.1642 4.05245 17.3197C4.15225 17.6156 4.3848 17.848 4.68066 17.9478C4.83556 18 5.02701 18 5.40956 18H9" stroke="#969696" stroke-width="2" stroke-linecap="round" stroke-linejoin="round"/>
</svg>
