<svg width="24" height="24" viewBox="0 0 24 24" fill="none" xmlns="http://www.w3.org/2000/svg">
<path d="M9.47999 3.94C9.57424 3.398 10.0665 3 10.6425 3H13.3581C13.9341 3 14.4263 3.398 14.5205 3.94L14.7436 5.221C14.8096 5.595 15.0714 5.907 15.4191 6.091C15.4966 6.131 15.573 6.174 15.6495 6.218C15.9899 6.414 16.4035 6.475 16.7753 6.342L18.0498 5.886C18.311 5.79221 18.5986 5.78998 18.8614 5.87971C19.1241 5.96945 19.345 6.14531 19.4846 6.376L20.8419 8.623C20.9812 8.8537 21.0303 9.12413 20.9805 9.38617C20.9306 9.6482 20.785 9.88485 20.5696 10.054L19.5192 10.881C19.2123 11.122 19.0605 11.494 19.0688 11.873C19.0703 11.958 19.0703 12.043 19.0688 12.128C19.0605 12.506 19.2123 12.878 19.5192 13.119L20.5706 13.946C21.0147 14.296 21.1299 14.901 20.8429 15.376L19.4836 17.623C19.3441 17.8536 19.1235 18.0296 18.861 18.1195C18.5984 18.2094 18.311 18.2074 18.0498 18.114L16.7753 17.658C16.4035 17.525 15.9899 17.586 15.6484 17.782C15.5725 17.8261 15.4957 17.8688 15.418 17.91C15.0714 18.093 14.8096 18.405 14.7436 18.779L14.5205 20.06C14.4263 20.603 13.9341 21 13.3581 21H10.6414C10.0654 21 9.57424 20.602 9.47894 20.06L9.25587 18.779C9.19094 18.405 8.92912 18.093 8.58142 17.909C8.50377 17.8681 8.42695 17.8258 8.35102 17.782C8.01066 17.586 7.59698 17.525 7.22415 17.658L5.94962 18.114C5.68856 18.2075 5.40123 18.2096 5.13871 18.1199C4.8762 18.0302 4.65551 17.8545 4.5159 17.624L3.15758 15.377C3.01823 15.1463 2.96912 14.8759 3.01898 14.6138C3.06884 14.3518 3.21444 14.1152 3.42987 13.946L4.48134 13.119C4.78714 12.879 4.939 12.506 4.93167 12.128C4.93003 12.043 4.93003 11.958 4.93167 11.873C4.939 11.493 4.78714 11.122 4.48134 10.881L3.42987 10.054C3.2147 9.88489 3.06927 9.64843 3.01942 9.38662C2.96956 9.12481 3.01852 8.8546 3.15758 8.624L4.5159 6.377C4.65538 6.14614 4.87617 5.97006 5.13894 5.88014C5.4017 5.79021 5.68936 5.79229 5.95067 5.886L7.22415 6.342C7.59698 6.475 8.01066 6.414 8.35102 6.218C8.42643 6.174 8.50393 6.132 8.58142 6.09C8.92912 5.907 9.19094 5.595 9.25587 5.221L9.47999 3.94Z" stroke="#969696" stroke-width="2" stroke-linecap="round" stroke-linejoin="round"/>
<path d="M15.5 12C15.5 12.9283 15.1313 13.8185 14.4749 14.4749C13.8185 15.1313 12.9283 15.5 12 15.5C11.0717 15.5 10.1815 15.1313 9.52513 14.4749C8.86875 13.8185 8.5 12.9283 8.5 12C8.5 11.0717 8.86875 10.1815 9.52513 9.52513C10.1815 8.86875 11.0717 8.5 12 8.5C12.9283 8.5 13.8185 8.86875 14.4749 9.52513C15.1313 10.1815 15.5 11.0717 15.5 12Z" stroke="#969696" stroke-width="2" stroke-linecap="round" stroke-linejoin="round"/>
</svg>
