<svg width="33" height="33" viewBox="0 0 33 33" fill="none" xmlns="http://www.w3.org/2000/svg">
<rect x="1" y="1" width="31" height="31" rx="15.5" stroke="#CACACA" stroke-width="2"/>
<path d="M16.5 14.0001V17.3334M10.1491 19.1666C9.39123 20.4792 9.01241 21.1358 9.06901 21.6744C9.11839 22.1441 9.36493 22.5709 9.74707 22.8486C10.185 23.1668 10.9424 23.1668 12.4571 23.1668H20.5429C22.0576 23.1668 22.8149 23.1668 23.2528 22.8486C23.635 22.5709 23.8816 22.1441 23.931 21.6744C23.9876 21.1358 23.6089 20.4792 22.851 19.1666L18.8096 12.1666C18.0517 10.8539 17.6726 10.1977 17.1779 9.97746C16.7464 9.78534 16.2533 9.78534 15.8218 9.97746C15.3273 10.1976 14.9484 10.8539 14.1912 12.1654L10.1491 19.1666ZM16.5423 19.8334V19.9168L16.4585 19.9169V19.8334H16.5423Z" stroke="#CACACA" stroke-width="1.66667" stroke-linecap="round" stroke-linejoin="round"/>
</svg>
